<?xml version="1.0" standalone="no"?>
<!DOCTYPE svg PUBLIC "-//W3C//DTD SVG 20010904//EN"
 "http://www.w3.org/TR/2001/REC-SVG-20010904/DTD/svg10.dtd">
<svg version="1.0" xmlns="http://www.w3.org/2000/svg"
 width="512.000000pt" height="512.000000pt" viewBox="0 0 512.000000 512.000000"
 preserveAspectRatio="xMidYMid meet">

<g transform="translate(0.000000,512.000000) scale(0.100000,-0.100000)"
fill="#000000" stroke="none">
<path d="M1872 5104 c-20 -14 -22 -24 -22 -103 0 -80 -3 -96 -39 -178 -107
-247 -149 -506 -158 -978 -4 -239 -1 -349 18 -625 27 -397 28 -802 5 -1103
-21 -260 -13 -210 -186 -1161 -133 -736 -148 -832 -136 -851 16 -25 112 -55
256 -82 135 -24 494 -24 640 0 154 26 251 53 273 76 21 20 21 21 3 433 -38
926 -46 1139 -52 1478 -5 233 -3 413 5 525 12 188 72 808 77 814 2 2 6 2 8 0
5 -6 65 -626 77 -814 8 -112 10 -292 5 -525 -6 -339 -14 -552 -52 -1478 -18
-412 -18 -413 3 -433 22 -23 119 -50 273 -76 146 -24 505 -24 640 0 144 27
240 57 256 82 12 19 -3 115 -137 851 -82 456 -156 879 -164 939 -44 344 -49
824 -16 1325 19 276 22 386 18 625 -9 470 -51 732 -158 978 -36 82 -39 98 -39
178 0 79 -2 89 -22 103 -20 14 -102 16 -688 16 -586 0 -668 -2 -688 -16z m628
-129 l0 -25 -265 0 -265 0 0 25 0 25 265 0 265 0 0 -25z m650 0 l0 -25 -265 0
-265 0 0 25 0 25 265 0 265 0 0 -25z m-1030 -162 c0 -10 -9 -76 -20 -147 -18
-117 -19 -132 -5 -153 10 -15 25 -23 45 -23 54 0 57 9 93 250 l12 85 128 3
127 3 0 -478 c0 -263 -5 -507 -10 -543 -21 -149 -72 -597 -102 -905 -31 -316
-33 -348 -32 -755 0 -234 6 -555 12 -715 7 -159 22 -506 33 -769 16 -384 18
-481 8 -487 -38 -23 -333 -59 -488 -59 -109 0 -321 23 -396 43 -44 12 -50 17
-47 38 1 13 66 373 143 799 77 426 146 826 154 890 41 346 50 858 21 1245 -56
742 -18 1284 111 1608 l35 87 89 0 c78 0 89 -2 89 -17z m767 -73 c36 -241 39
-250 93 -250 20 0 35 8 45 23 14 21 13 36 -5 153 -28 182 -35 164 69 164 l89
0 35 -87 c129 -324 167 -866 111 -1608 -29 -389 -17 -992 26 -1298 6 -39 73
-418 150 -842 77 -424 141 -781 142 -794 3 -21 -3 -26 -47 -38 -75 -20 -287
-43 -396 -43 -155 0 -450 36 -488 59 -10 6 -8 103 8 487 11 263 26 610 33 769
6 160 12 481 12 715 1 407 -1 439 -32 755 -30 308 -81 756 -102 905 -5 36 -10
280 -10 543 l0 478 127 -3 128 -3 12 -85z"/>
</g>
</svg>
